<mxfile host="app.diagrams.net" agent="Mozilla/5.0 (Windows NT 10.0; Win64; x64) AppleWebKit/537.36 (KHTML, like Gecko) Chrome/131.0.0.0 Safari/537.36" version="24.9.0">
  <diagram name="Page-1" id="mIZZKAZB9E--skXBiEiF">
    <mxGraphModel dx="1900" dy="522" grid="1" gridSize="10" guides="1" tooltips="1" connect="1" arrows="1" fold="1" page="1" pageScale="1" pageWidth="850" pageHeight="1100" math="0" shadow="0">
      <root>
        <mxCell id="0" />
        <mxCell id="1" parent="0" />
        <mxCell id="s2S6JgME6SzRMrmq0q6a-17" value="" style="rounded=0;whiteSpace=wrap;html=1;" parent="1" vertex="1">
          <mxGeometry x="285" y="910" width="130" height="80" as="geometry" />
        </mxCell>
        <mxCell id="CM2-VIgjt1Z2L4gnI3Ru-36" value="" style="rounded=0;whiteSpace=wrap;html=1;" parent="1" vertex="1">
          <mxGeometry x="100" y="530" width="160" height="80" as="geometry" />
        </mxCell>
        <mxCell id="CM2-VIgjt1Z2L4gnI3Ru-21" value="" style="rounded=0;whiteSpace=wrap;html=1;" parent="1" vertex="1">
          <mxGeometry x="140" y="660" width="80" height="80" as="geometry" />
        </mxCell>
        <mxCell id="CM2-VIgjt1Z2L4gnI3Ru-20" value="" style="rounded=0;whiteSpace=wrap;html=1;" parent="1" vertex="1">
          <mxGeometry x="-60" y="530" width="80" height="80" as="geometry" />
        </mxCell>
        <mxCell id="CM2-VIgjt1Z2L4gnI3Ru-6" value="" style="rhombus;whiteSpace=wrap;html=1;" parent="1" vertex="1">
          <mxGeometry x="120" y="375" width="100" height="90" as="geometry" />
        </mxCell>
        <mxCell id="hy04I8dhIgJNK-ExyN5S-1" value="KUD" style="rounded=0;whiteSpace=wrap;html=1;" parent="1" vertex="1">
          <mxGeometry x="120" y="260" width="120" height="60" as="geometry" />
        </mxCell>
        <mxCell id="hy04I8dhIgJNK-ExyN5S-2" value="" style="rounded=0;whiteSpace=wrap;html=1;" parent="1" vertex="1">
          <mxGeometry x="590" y="260" width="120" height="60" as="geometry" />
        </mxCell>
        <mxCell id="hy04I8dhIgJNK-ExyN5S-3" value="RADI" style="rhombus;whiteSpace=wrap;html=1;" parent="1" vertex="1">
          <mxGeometry x="385" y="250" width="80" height="80" as="geometry" />
        </mxCell>
        <mxCell id="hy04I8dhIgJNK-ExyN5S-4" value="" style="endArrow=classic;html=1;rounded=0;exitX=1;exitY=0.5;exitDx=0;exitDy=0;entryX=0;entryY=0.5;entryDx=0;entryDy=0;" parent="1" source="hy04I8dhIgJNK-ExyN5S-3" target="hy04I8dhIgJNK-ExyN5S-2" edge="1">
          <mxGeometry width="50" height="50" relative="1" as="geometry">
            <mxPoint x="420" y="280" as="sourcePoint" />
            <mxPoint x="470" y="230" as="targetPoint" />
          </mxGeometry>
        </mxCell>
        <mxCell id="CM2-VIgjt1Z2L4gnI3Ru-40" value="0, 1" style="edgeLabel;html=1;align=center;verticalAlign=middle;resizable=0;points=[];" parent="hy04I8dhIgJNK-ExyN5S-4" vertex="1" connectable="0">
          <mxGeometry x="-0.0624" y="-1" relative="1" as="geometry">
            <mxPoint as="offset" />
          </mxGeometry>
        </mxCell>
        <mxCell id="hy04I8dhIgJNK-ExyN5S-5" value="" style="endArrow=classic;html=1;rounded=0;exitX=0;exitY=0.5;exitDx=0;exitDy=0;entryX=1;entryY=0.5;entryDx=0;entryDy=0;" parent="1" source="hy04I8dhIgJNK-ExyN5S-3" target="hy04I8dhIgJNK-ExyN5S-1" edge="1">
          <mxGeometry width="50" height="50" relative="1" as="geometry">
            <mxPoint x="420" y="280" as="sourcePoint" />
            <mxPoint x="470" y="230" as="targetPoint" />
          </mxGeometry>
        </mxCell>
        <mxCell id="CM2-VIgjt1Z2L4gnI3Ru-39" value="1, N" style="edgeLabel;html=1;align=center;verticalAlign=middle;resizable=0;points=[];" parent="hy04I8dhIgJNK-ExyN5S-5" vertex="1" connectable="0">
          <mxGeometry x="0.4995" y="-1" relative="1" as="geometry">
            <mxPoint as="offset" />
          </mxGeometry>
        </mxCell>
        <mxCell id="hy04I8dhIgJNK-ExyN5S-6" value="PREDSJEDNIK" style="rounded=0;whiteSpace=wrap;html=1;" parent="1" vertex="1">
          <mxGeometry x="600" y="540" width="120" height="60" as="geometry" />
        </mxCell>
        <mxCell id="hy04I8dhIgJNK-ExyN5S-7" value="SEKRETAR" style="rounded=0;whiteSpace=wrap;html=1;" parent="1" vertex="1">
          <mxGeometry x="750" y="540" width="120" height="60" as="geometry" />
        </mxCell>
        <mxCell id="hy04I8dhIgJNK-ExyN5S-10" value="KOREOGRAF" style="rounded=0;whiteSpace=wrap;html=1;" parent="1" vertex="1">
          <mxGeometry x="450" y="540" width="120" height="60" as="geometry" />
        </mxCell>
        <mxCell id="hy04I8dhIgJNK-ExyN5S-15" value="CLAN" style="rounded=0;whiteSpace=wrap;html=1;" parent="1" vertex="1">
          <mxGeometry x="120" y="810" width="120" height="60" as="geometry" />
        </mxCell>
        <mxCell id="hy04I8dhIgJNK-ExyN5S-43" style="edgeStyle=orthogonalEdgeStyle;rounded=0;orthogonalLoop=1;jettySize=auto;html=1;exitX=0.5;exitY=0;exitDx=0;exitDy=0;entryX=0.5;entryY=1;entryDx=0;entryDy=0;" parent="1" source="hy04I8dhIgJNK-ExyN5S-41" target="hy04I8dhIgJNK-ExyN5S-2" edge="1">
          <mxGeometry relative="1" as="geometry" />
        </mxCell>
        <mxCell id="s2S6JgME6SzRMrmq0q6a-3" value="0..N" style="edgeLabel;html=1;align=center;verticalAlign=middle;resizable=0;points=[];" parent="hy04I8dhIgJNK-ExyN5S-43" vertex="1" connectable="0">
          <mxGeometry x="-0.1686" y="2" relative="1" as="geometry">
            <mxPoint as="offset" />
          </mxGeometry>
        </mxCell>
        <mxCell id="hy04I8dhIgJNK-ExyN5S-41" value="IS-A" style="rhombus;whiteSpace=wrap;html=1;" parent="1" vertex="1">
          <mxGeometry x="610" y="350" width="80" height="80" as="geometry" />
        </mxCell>
        <mxCell id="hy04I8dhIgJNK-ExyN5S-42" value="" style="shape=flexArrow;endArrow=classic;html=1;rounded=0;exitX=1;exitY=1;exitDx=0;exitDy=0;entryX=0.347;entryY=-0.047;entryDx=0;entryDy=0;entryPerimeter=0;" parent="1" source="hy04I8dhIgJNK-ExyN5S-41" target="hy04I8dhIgJNK-ExyN5S-7" edge="1">
          <mxGeometry width="50" height="50" relative="1" as="geometry">
            <mxPoint x="700" y="440" as="sourcePoint" />
            <mxPoint x="750" y="390" as="targetPoint" />
          </mxGeometry>
        </mxCell>
        <mxCell id="hy04I8dhIgJNK-ExyN5S-44" value="" style="shape=flexArrow;endArrow=classic;html=1;rounded=0;exitX=0.5;exitY=1;exitDx=0;exitDy=0;entryX=0.5;entryY=0;entryDx=0;entryDy=0;" parent="1" source="hy04I8dhIgJNK-ExyN5S-41" target="hy04I8dhIgJNK-ExyN5S-6" edge="1">
          <mxGeometry width="50" height="50" relative="1" as="geometry">
            <mxPoint x="370" y="410" as="sourcePoint" />
            <mxPoint x="420" y="360" as="targetPoint" />
          </mxGeometry>
        </mxCell>
        <mxCell id="hy04I8dhIgJNK-ExyN5S-45" value="" style="shape=flexArrow;endArrow=classic;html=1;rounded=0;exitX=0;exitY=1;exitDx=0;exitDy=0;entryX=0.5;entryY=0;entryDx=0;entryDy=0;" parent="1" source="hy04I8dhIgJNK-ExyN5S-41" target="hy04I8dhIgJNK-ExyN5S-10" edge="1">
          <mxGeometry width="50" height="50" relative="1" as="geometry">
            <mxPoint x="370" y="410" as="sourcePoint" />
            <mxPoint x="420" y="360" as="targetPoint" />
          </mxGeometry>
        </mxCell>
        <mxCell id="hy04I8dhIgJNK-ExyN5S-46" value="CLANARINA" style="rounded=0;whiteSpace=wrap;html=1;" parent="1" vertex="1">
          <mxGeometry x="750" y="810" width="120" height="60" as="geometry" />
        </mxCell>
        <mxCell id="hy04I8dhIgJNK-ExyN5S-49" style="edgeStyle=orthogonalEdgeStyle;rounded=0;orthogonalLoop=1;jettySize=auto;html=1;exitX=1;exitY=0.5;exitDx=0;exitDy=0;entryX=0;entryY=0.5;entryDx=0;entryDy=0;" parent="1" source="hy04I8dhIgJNK-ExyN5S-47" target="hy04I8dhIgJNK-ExyN5S-46" edge="1">
          <mxGeometry relative="1" as="geometry" />
        </mxCell>
        <mxCell id="CM2-VIgjt1Z2L4gnI3Ru-46" value="1, 1" style="edgeLabel;html=1;align=center;verticalAlign=middle;resizable=0;points=[];" parent="hy04I8dhIgJNK-ExyN5S-49" vertex="1" connectable="0">
          <mxGeometry x="0.0057" y="2" relative="1" as="geometry">
            <mxPoint as="offset" />
          </mxGeometry>
        </mxCell>
        <mxCell id="CM2-VIgjt1Z2L4gnI3Ru-30" style="edgeStyle=orthogonalEdgeStyle;rounded=0;orthogonalLoop=1;jettySize=auto;html=1;exitX=0;exitY=0.5;exitDx=0;exitDy=0;entryX=1;entryY=0.5;entryDx=0;entryDy=0;" parent="1" source="hy04I8dhIgJNK-ExyN5S-47" target="hy04I8dhIgJNK-ExyN5S-15" edge="1">
          <mxGeometry relative="1" as="geometry" />
        </mxCell>
        <mxCell id="CM2-VIgjt1Z2L4gnI3Ru-45" value="0,N" style="edgeLabel;html=1;align=center;verticalAlign=middle;resizable=0;points=[];" parent="CM2-VIgjt1Z2L4gnI3Ru-30" vertex="1" connectable="0">
          <mxGeometry x="-0.1782" y="-1" relative="1" as="geometry">
            <mxPoint as="offset" />
          </mxGeometry>
        </mxCell>
        <mxCell id="hy04I8dhIgJNK-ExyN5S-47" value="PLACA" style="rhombus;whiteSpace=wrap;html=1;" parent="1" vertex="1">
          <mxGeometry x="460" y="800" width="80" height="80" as="geometry" />
        </mxCell>
        <mxCell id="hy04I8dhIgJNK-ExyN5S-51" style="edgeStyle=orthogonalEdgeStyle;rounded=0;orthogonalLoop=1;jettySize=auto;html=1;exitX=0.5;exitY=0;exitDx=0;exitDy=0;entryX=0.5;entryY=1;entryDx=0;entryDy=0;" parent="1" source="hy04I8dhIgJNK-ExyN5S-50" target="hy04I8dhIgJNK-ExyN5S-7" edge="1">
          <mxGeometry relative="1" as="geometry" />
        </mxCell>
        <mxCell id="CM2-VIgjt1Z2L4gnI3Ru-54" value="0, N" style="edgeLabel;html=1;align=center;verticalAlign=middle;resizable=0;points=[];" parent="hy04I8dhIgJNK-ExyN5S-51" vertex="1" connectable="0">
          <mxGeometry x="-0.2435" y="-2" relative="1" as="geometry">
            <mxPoint as="offset" />
          </mxGeometry>
        </mxCell>
        <mxCell id="hy04I8dhIgJNK-ExyN5S-52" style="edgeStyle=orthogonalEdgeStyle;rounded=0;orthogonalLoop=1;jettySize=auto;html=1;exitX=0.5;exitY=1;exitDx=0;exitDy=0;entryX=0.5;entryY=0;entryDx=0;entryDy=0;" parent="1" source="hy04I8dhIgJNK-ExyN5S-50" target="hy04I8dhIgJNK-ExyN5S-46" edge="1">
          <mxGeometry relative="1" as="geometry" />
        </mxCell>
        <mxCell id="CM2-VIgjt1Z2L4gnI3Ru-53" value="0,1" style="edgeLabel;html=1;align=center;verticalAlign=middle;resizable=0;points=[];" parent="hy04I8dhIgJNK-ExyN5S-52" vertex="1" connectable="0">
          <mxGeometry x="-0.1826" y="-2" relative="1" as="geometry">
            <mxPoint as="offset" />
          </mxGeometry>
        </mxCell>
        <mxCell id="hy04I8dhIgJNK-ExyN5S-50" value="EVIDENTIRA" style="rhombus;whiteSpace=wrap;html=1;" parent="1" vertex="1">
          <mxGeometry x="770" y="660" width="80" height="80" as="geometry" />
        </mxCell>
        <mxCell id="CM2-VIgjt1Z2L4gnI3Ru-3" style="edgeStyle=orthogonalEdgeStyle;rounded=0;orthogonalLoop=1;jettySize=auto;html=1;exitX=0.5;exitY=0;exitDx=0;exitDy=0;" parent="1" source="CM2-VIgjt1Z2L4gnI3Ru-1" target="hy04I8dhIgJNK-ExyN5S-1" edge="1">
          <mxGeometry relative="1" as="geometry">
            <Array as="points">
              <mxPoint x="170" y="340" />
              <mxPoint x="170" y="340" />
            </Array>
          </mxGeometry>
        </mxCell>
        <mxCell id="xCsh317UERCahLKjyAqL-1" value="0..N" style="edgeLabel;html=1;align=center;verticalAlign=middle;resizable=0;points=[];" parent="CM2-VIgjt1Z2L4gnI3Ru-3" vertex="1" connectable="0">
          <mxGeometry x="0.3857" y="-3" relative="1" as="geometry">
            <mxPoint as="offset" />
          </mxGeometry>
        </mxCell>
        <mxCell id="CM2-VIgjt1Z2L4gnI3Ru-1" value="SADRZI" style="rhombus;whiteSpace=wrap;html=1;" parent="1" vertex="1">
          <mxGeometry x="130" y="380" width="80" height="80" as="geometry" />
        </mxCell>
        <mxCell id="CM2-VIgjt1Z2L4gnI3Ru-2" value="SEKCIJA" style="rounded=0;whiteSpace=wrap;html=1;" parent="1" vertex="1">
          <mxGeometry x="120" y="540" width="120" height="60" as="geometry" />
        </mxCell>
        <mxCell id="CM2-VIgjt1Z2L4gnI3Ru-8" value="" style="shape=flexArrow;endArrow=classic;html=1;rounded=0;exitX=0.5;exitY=1;exitDx=0;exitDy=0;entryX=0.424;entryY=0.052;entryDx=0;entryDy=0;entryPerimeter=0;" parent="1" source="CM2-VIgjt1Z2L4gnI3Ru-1" target="CM2-VIgjt1Z2L4gnI3Ru-2" edge="1">
          <mxGeometry width="50" height="50" relative="1" as="geometry">
            <mxPoint x="-20" y="500" as="sourcePoint" />
            <mxPoint x="30" y="450" as="targetPoint" />
          </mxGeometry>
        </mxCell>
        <mxCell id="CM2-VIgjt1Z2L4gnI3Ru-10" style="edgeStyle=orthogonalEdgeStyle;rounded=0;orthogonalLoop=1;jettySize=auto;html=1;exitX=0.5;exitY=0;exitDx=0;exitDy=0;entryX=0.5;entryY=1;entryDx=0;entryDy=0;" parent="1" source="CM2-VIgjt1Z2L4gnI3Ru-9" target="CM2-VIgjt1Z2L4gnI3Ru-2" edge="1">
          <mxGeometry relative="1" as="geometry" />
        </mxCell>
        <mxCell id="CM2-VIgjt1Z2L4gnI3Ru-43" value="0, N" style="edgeLabel;html=1;align=center;verticalAlign=middle;resizable=0;points=[];" parent="CM2-VIgjt1Z2L4gnI3Ru-10" vertex="1" connectable="0">
          <mxGeometry x="-0.2267" y="-1" relative="1" as="geometry">
            <mxPoint as="offset" />
          </mxGeometry>
        </mxCell>
        <mxCell id="CM2-VIgjt1Z2L4gnI3Ru-11" style="edgeStyle=orthogonalEdgeStyle;rounded=0;orthogonalLoop=1;jettySize=auto;html=1;exitX=0.5;exitY=1;exitDx=0;exitDy=0;entryX=0.5;entryY=0;entryDx=0;entryDy=0;" parent="1" source="CM2-VIgjt1Z2L4gnI3Ru-9" target="hy04I8dhIgJNK-ExyN5S-15" edge="1">
          <mxGeometry relative="1" as="geometry" />
        </mxCell>
        <mxCell id="CM2-VIgjt1Z2L4gnI3Ru-44" value="0, N" style="edgeLabel;html=1;align=center;verticalAlign=middle;resizable=0;points=[];" parent="CM2-VIgjt1Z2L4gnI3Ru-11" vertex="1" connectable="0">
          <mxGeometry x="-0.0057" y="-2" relative="1" as="geometry">
            <mxPoint as="offset" />
          </mxGeometry>
        </mxCell>
        <mxCell id="CM2-VIgjt1Z2L4gnI3Ru-9" value="JE" style="rhombus;whiteSpace=wrap;html=1;" parent="1" vertex="1">
          <mxGeometry x="140" y="660" width="80" height="80" as="geometry" />
        </mxCell>
        <mxCell id="CM2-VIgjt1Z2L4gnI3Ru-14" style="edgeStyle=orthogonalEdgeStyle;rounded=0;orthogonalLoop=1;jettySize=auto;html=1;exitX=1;exitY=0.5;exitDx=0;exitDy=0;entryX=0;entryY=0.5;entryDx=0;entryDy=0;" parent="1" source="CM2-VIgjt1Z2L4gnI3Ru-12" target="hy04I8dhIgJNK-ExyN5S-10" edge="1">
          <mxGeometry relative="1" as="geometry" />
        </mxCell>
        <mxCell id="CM2-VIgjt1Z2L4gnI3Ru-41" value="0, 1" style="edgeLabel;html=1;align=center;verticalAlign=middle;resizable=0;points=[];" parent="CM2-VIgjt1Z2L4gnI3Ru-14" vertex="1" connectable="0">
          <mxGeometry x="0.0867" y="-1" relative="1" as="geometry">
            <mxPoint as="offset" />
          </mxGeometry>
        </mxCell>
        <mxCell id="CM2-VIgjt1Z2L4gnI3Ru-37" style="edgeStyle=orthogonalEdgeStyle;rounded=0;orthogonalLoop=1;jettySize=auto;html=1;exitX=0;exitY=0.5;exitDx=0;exitDy=0;entryX=1;entryY=0.5;entryDx=0;entryDy=0;" parent="1" source="CM2-VIgjt1Z2L4gnI3Ru-12" target="CM2-VIgjt1Z2L4gnI3Ru-36" edge="1">
          <mxGeometry relative="1" as="geometry" />
        </mxCell>
        <mxCell id="CM2-VIgjt1Z2L4gnI3Ru-42" value="1, N" style="edgeLabel;html=1;align=center;verticalAlign=middle;resizable=0;points=[];" parent="CM2-VIgjt1Z2L4gnI3Ru-37" vertex="1" connectable="0">
          <mxGeometry x="-0.024" y="-1" relative="1" as="geometry">
            <mxPoint as="offset" />
          </mxGeometry>
        </mxCell>
        <mxCell id="CM2-VIgjt1Z2L4gnI3Ru-12" value="VODI" style="rhombus;whiteSpace=wrap;html=1;" parent="1" vertex="1">
          <mxGeometry x="310" y="530" width="80" height="80" as="geometry" />
        </mxCell>
        <mxCell id="CM2-VIgjt1Z2L4gnI3Ru-15" value="PROBA" style="rounded=0;whiteSpace=wrap;html=1;" parent="1" vertex="1">
          <mxGeometry x="-280" y="540" width="120" height="60" as="geometry" />
        </mxCell>
        <mxCell id="CM2-VIgjt1Z2L4gnI3Ru-18" style="edgeStyle=orthogonalEdgeStyle;rounded=0;orthogonalLoop=1;jettySize=auto;html=1;exitX=0;exitY=0.5;exitDx=0;exitDy=0;entryX=1;entryY=0.5;entryDx=0;entryDy=0;" parent="1" source="CM2-VIgjt1Z2L4gnI3Ru-16" target="CM2-VIgjt1Z2L4gnI3Ru-15" edge="1">
          <mxGeometry relative="1" as="geometry" />
        </mxCell>
        <mxCell id="CM2-VIgjt1Z2L4gnI3Ru-47" value="0, 1" style="edgeLabel;html=1;align=center;verticalAlign=middle;resizable=0;points=[];" parent="CM2-VIgjt1Z2L4gnI3Ru-18" vertex="1" connectable="0">
          <mxGeometry x="0.224" y="-3" relative="1" as="geometry">
            <mxPoint as="offset" />
          </mxGeometry>
        </mxCell>
        <mxCell id="CM2-VIgjt1Z2L4gnI3Ru-38" style="edgeStyle=orthogonalEdgeStyle;rounded=0;orthogonalLoop=1;jettySize=auto;html=1;exitX=1;exitY=0.5;exitDx=0;exitDy=0;entryX=0;entryY=0.5;entryDx=0;entryDy=0;" parent="1" source="CM2-VIgjt1Z2L4gnI3Ru-16" target="CM2-VIgjt1Z2L4gnI3Ru-36" edge="1">
          <mxGeometry relative="1" as="geometry" />
        </mxCell>
        <mxCell id="CM2-VIgjt1Z2L4gnI3Ru-48" value="0, N" style="edgeLabel;html=1;align=center;verticalAlign=middle;resizable=0;points=[];" parent="CM2-VIgjt1Z2L4gnI3Ru-38" vertex="1" connectable="0">
          <mxGeometry x="-0.005" relative="1" as="geometry">
            <mxPoint as="offset" />
          </mxGeometry>
        </mxCell>
        <mxCell id="CM2-VIgjt1Z2L4gnI3Ru-16" value="ODRZAVA SE" style="rhombus;whiteSpace=wrap;html=1;" parent="1" vertex="1">
          <mxGeometry x="-60" y="530" width="80" height="80" as="geometry" />
        </mxCell>
        <mxCell id="CM2-VIgjt1Z2L4gnI3Ru-23" style="edgeStyle=orthogonalEdgeStyle;rounded=0;orthogonalLoop=1;jettySize=auto;html=1;exitX=1;exitY=0.5;exitDx=0;exitDy=0;entryX=0;entryY=0.5;entryDx=0;entryDy=0;" parent="1" source="CM2-VIgjt1Z2L4gnI3Ru-22" target="CM2-VIgjt1Z2L4gnI3Ru-9" edge="1">
          <mxGeometry relative="1" as="geometry">
            <Array as="points">
              <mxPoint x="70" y="700" />
              <mxPoint x="70" y="700" />
            </Array>
          </mxGeometry>
        </mxCell>
        <mxCell id="CM2-VIgjt1Z2L4gnI3Ru-49" value="0, N" style="edgeLabel;html=1;align=center;verticalAlign=middle;resizable=0;points=[];" parent="CM2-VIgjt1Z2L4gnI3Ru-23" vertex="1" connectable="0">
          <mxGeometry x="-0.1367" y="2" relative="1" as="geometry">
            <mxPoint as="offset" />
          </mxGeometry>
        </mxCell>
        <mxCell id="CM2-VIgjt1Z2L4gnI3Ru-24" style="edgeStyle=orthogonalEdgeStyle;rounded=0;orthogonalLoop=1;jettySize=auto;html=1;exitX=0.5;exitY=0;exitDx=0;exitDy=0;entryX=0.5;entryY=1;entryDx=0;entryDy=0;" parent="1" source="CM2-VIgjt1Z2L4gnI3Ru-22" target="CM2-VIgjt1Z2L4gnI3Ru-16" edge="1">
          <mxGeometry relative="1" as="geometry" />
        </mxCell>
        <mxCell id="CM2-VIgjt1Z2L4gnI3Ru-50" value="1, N" style="edgeLabel;html=1;align=center;verticalAlign=middle;resizable=0;points=[];" parent="CM2-VIgjt1Z2L4gnI3Ru-24" vertex="1" connectable="0">
          <mxGeometry x="-0.072" relative="1" as="geometry">
            <mxPoint as="offset" />
          </mxGeometry>
        </mxCell>
        <mxCell id="CM2-VIgjt1Z2L4gnI3Ru-22" value="IDE" style="rhombus;whiteSpace=wrap;html=1;" parent="1" vertex="1">
          <mxGeometry x="-60" y="660" width="80" height="80" as="geometry" />
        </mxCell>
        <mxCell id="joY-Sn_8TgXlIj9j0hOH-3" style="edgeStyle=orthogonalEdgeStyle;rounded=0;orthogonalLoop=1;jettySize=auto;html=1;exitX=0.5;exitY=0;exitDx=0;exitDy=0;entryX=0.5;entryY=1;entryDx=0;entryDy=0;" edge="1" parent="1" source="CM2-VIgjt1Z2L4gnI3Ru-25" target="hy04I8dhIgJNK-ExyN5S-15">
          <mxGeometry relative="1" as="geometry" />
        </mxCell>
        <mxCell id="joY-Sn_8TgXlIj9j0hOH-4" value="0..N" style="edgeLabel;html=1;align=center;verticalAlign=middle;resizable=0;points=[];" vertex="1" connectable="0" parent="joY-Sn_8TgXlIj9j0hOH-3">
          <mxGeometry x="-0.03" relative="1" as="geometry">
            <mxPoint as="offset" />
          </mxGeometry>
        </mxCell>
        <mxCell id="CM2-VIgjt1Z2L4gnI3Ru-25" value="ZADUZUJE" style="rhombus;whiteSpace=wrap;html=1;" parent="1" vertex="1">
          <mxGeometry x="140" y="910" width="80" height="80" as="geometry" />
        </mxCell>
        <mxCell id="CM2-VIgjt1Z2L4gnI3Ru-27" value="NOSNJA" style="rounded=0;whiteSpace=wrap;html=1;" parent="1" vertex="1">
          <mxGeometry x="120" y="1090" width="120" height="60" as="geometry" />
        </mxCell>
        <mxCell id="CM2-VIgjt1Z2L4gnI3Ru-55" value="KOREOGRAFIJA" style="rounded=0;whiteSpace=wrap;html=1;" parent="1" vertex="1">
          <mxGeometry x="560" y="1090" width="120" height="60" as="geometry" />
        </mxCell>
        <mxCell id="CM2-VIgjt1Z2L4gnI3Ru-59" style="edgeStyle=orthogonalEdgeStyle;rounded=0;orthogonalLoop=1;jettySize=auto;html=1;exitX=0;exitY=0.5;exitDx=0;exitDy=0;entryX=1;entryY=0.5;entryDx=0;entryDy=0;" parent="1" source="CM2-VIgjt1Z2L4gnI3Ru-57" target="CM2-VIgjt1Z2L4gnI3Ru-27" edge="1">
          <mxGeometry relative="1" as="geometry" />
        </mxCell>
        <mxCell id="CM2-VIgjt1Z2L4gnI3Ru-61" value="1, N" style="edgeLabel;html=1;align=center;verticalAlign=middle;resizable=0;points=[];" parent="CM2-VIgjt1Z2L4gnI3Ru-59" vertex="1" connectable="0">
          <mxGeometry x="0.1904" y="-2" relative="1" as="geometry">
            <mxPoint as="offset" />
          </mxGeometry>
        </mxCell>
        <mxCell id="CM2-VIgjt1Z2L4gnI3Ru-60" style="edgeStyle=orthogonalEdgeStyle;rounded=0;orthogonalLoop=1;jettySize=auto;html=1;exitX=1;exitY=0.5;exitDx=0;exitDy=0;entryX=0;entryY=0.5;entryDx=0;entryDy=0;" parent="1" source="CM2-VIgjt1Z2L4gnI3Ru-57" target="CM2-VIgjt1Z2L4gnI3Ru-55" edge="1">
          <mxGeometry relative="1" as="geometry" />
        </mxCell>
        <mxCell id="CM2-VIgjt1Z2L4gnI3Ru-62" value="0, N" style="edgeLabel;html=1;align=center;verticalAlign=middle;resizable=0;points=[];" parent="CM2-VIgjt1Z2L4gnI3Ru-60" vertex="1" connectable="0">
          <mxGeometry x="0.0377" y="4" relative="1" as="geometry">
            <mxPoint as="offset" />
          </mxGeometry>
        </mxCell>
        <mxCell id="CM2-VIgjt1Z2L4gnI3Ru-57" value="PRIPADA" style="rhombus;whiteSpace=wrap;html=1;" parent="1" vertex="1">
          <mxGeometry x="360" y="1080" width="80" height="80" as="geometry" />
        </mxCell>
        <mxCell id="CM2-VIgjt1Z2L4gnI3Ru-64" style="edgeStyle=orthogonalEdgeStyle;rounded=0;orthogonalLoop=1;jettySize=auto;html=1;exitX=0;exitY=0.5;exitDx=0;exitDy=0;entryX=1;entryY=0.5;entryDx=0;entryDy=0;" parent="1" source="CM2-VIgjt1Z2L4gnI3Ru-63" target="CM2-VIgjt1Z2L4gnI3Ru-55" edge="1">
          <mxGeometry relative="1" as="geometry" />
        </mxCell>
        <mxCell id="CM2-VIgjt1Z2L4gnI3Ru-65" value="0, N" style="edgeLabel;html=1;align=center;verticalAlign=middle;resizable=0;points=[];" parent="CM2-VIgjt1Z2L4gnI3Ru-64" vertex="1" connectable="0">
          <mxGeometry x="0.0554" y="2" relative="1" as="geometry">
            <mxPoint as="offset" />
          </mxGeometry>
        </mxCell>
        <mxCell id="CM2-VIgjt1Z2L4gnI3Ru-66" style="edgeStyle=orthogonalEdgeStyle;rounded=0;orthogonalLoop=1;jettySize=auto;html=1;exitX=0.5;exitY=0;exitDx=0;exitDy=0;entryX=0.5;entryY=0;entryDx=0;entryDy=0;" parent="1" source="CM2-VIgjt1Z2L4gnI3Ru-63" target="hy04I8dhIgJNK-ExyN5S-1" edge="1">
          <mxGeometry relative="1" as="geometry">
            <Array as="points">
              <mxPoint x="990" y="190" />
              <mxPoint x="180" y="190" />
            </Array>
          </mxGeometry>
        </mxCell>
        <mxCell id="CM2-VIgjt1Z2L4gnI3Ru-67" value="0, N" style="edgeLabel;html=1;align=center;verticalAlign=middle;resizable=0;points=[];" parent="CM2-VIgjt1Z2L4gnI3Ru-66" vertex="1" connectable="0">
          <mxGeometry x="0.6834" y="-8" relative="1" as="geometry">
            <mxPoint x="-1" as="offset" />
          </mxGeometry>
        </mxCell>
        <mxCell id="CM2-VIgjt1Z2L4gnI3Ru-63" value="POSJEDUJE" style="rhombus;whiteSpace=wrap;html=1;" parent="1" vertex="1">
          <mxGeometry x="950" y="1080" width="80" height="80" as="geometry" />
        </mxCell>
        <mxCell id="CM2-VIgjt1Z2L4gnI3Ru-68" value="IMA NADREĐENOG" style="rhombus;whiteSpace=wrap;html=1;" parent="1" vertex="1">
          <mxGeometry x="460" y="650" width="80" height="80" as="geometry" />
        </mxCell>
        <mxCell id="CM2-VIgjt1Z2L4gnI3Ru-69" style="edgeStyle=orthogonalEdgeStyle;rounded=0;orthogonalLoop=1;jettySize=auto;html=1;exitX=0;exitY=0.5;exitDx=0;exitDy=0;entryX=0.097;entryY=1.02;entryDx=0;entryDy=0;entryPerimeter=0;" parent="1" source="CM2-VIgjt1Z2L4gnI3Ru-68" target="hy04I8dhIgJNK-ExyN5S-10" edge="1">
          <mxGeometry relative="1" as="geometry">
            <Array as="points">
              <mxPoint x="420" y="690" />
              <mxPoint x="420" y="601" />
            </Array>
          </mxGeometry>
        </mxCell>
        <mxCell id="CM2-VIgjt1Z2L4gnI3Ru-71" value="nadrenjeni" style="edgeLabel;html=1;align=center;verticalAlign=middle;resizable=0;points=[];" parent="CM2-VIgjt1Z2L4gnI3Ru-69" vertex="1" connectable="0">
          <mxGeometry x="-0.0894" y="2" relative="1" as="geometry">
            <mxPoint as="offset" />
          </mxGeometry>
        </mxCell>
        <mxCell id="CM2-VIgjt1Z2L4gnI3Ru-72" value="0, N" style="edgeLabel;html=1;align=center;verticalAlign=middle;resizable=0;points=[];" parent="CM2-VIgjt1Z2L4gnI3Ru-69" vertex="1" connectable="0">
          <mxGeometry x="-0.7489" y="-2" relative="1" as="geometry">
            <mxPoint as="offset" />
          </mxGeometry>
        </mxCell>
        <mxCell id="CM2-VIgjt1Z2L4gnI3Ru-70" style="edgeStyle=orthogonalEdgeStyle;rounded=0;orthogonalLoop=1;jettySize=auto;html=1;exitX=1;exitY=0.5;exitDx=0;exitDy=0;entryX=0.943;entryY=1.033;entryDx=0;entryDy=0;entryPerimeter=0;" parent="1" source="CM2-VIgjt1Z2L4gnI3Ru-68" target="hy04I8dhIgJNK-ExyN5S-10" edge="1">
          <mxGeometry relative="1" as="geometry">
            <Array as="points">
              <mxPoint x="580" y="690" />
              <mxPoint x="580" y="602" />
            </Array>
          </mxGeometry>
        </mxCell>
        <mxCell id="CM2-VIgjt1Z2L4gnI3Ru-73" value="podrenjenI" style="edgeLabel;html=1;align=center;verticalAlign=middle;resizable=0;points=[];" parent="CM2-VIgjt1Z2L4gnI3Ru-70" vertex="1" connectable="0">
          <mxGeometry x="0.182" y="-3" relative="1" as="geometry">
            <mxPoint as="offset" />
          </mxGeometry>
        </mxCell>
        <mxCell id="CM2-VIgjt1Z2L4gnI3Ru-74" value="0, 1" style="edgeLabel;html=1;align=center;verticalAlign=middle;resizable=0;points=[];" parent="CM2-VIgjt1Z2L4gnI3Ru-70" vertex="1" connectable="0">
          <mxGeometry x="-0.7846" y="3" relative="1" as="geometry">
            <mxPoint as="offset" />
          </mxGeometry>
        </mxCell>
        <mxCell id="CM2-VIgjt1Z2L4gnI3Ru-76" style="edgeStyle=orthogonalEdgeStyle;rounded=0;orthogonalLoop=1;jettySize=auto;html=1;exitX=0.5;exitY=0;exitDx=0;exitDy=0;entryX=0;entryY=0.5;entryDx=0;entryDy=0;" parent="1" source="CM2-VIgjt1Z2L4gnI3Ru-75" target="CM2-VIgjt1Z2L4gnI3Ru-27" edge="1">
          <mxGeometry relative="1" as="geometry" />
        </mxCell>
        <mxCell id="CM2-VIgjt1Z2L4gnI3Ru-75" value="&lt;u&gt;IdN&lt;/u&gt;" style="ellipse;whiteSpace=wrap;html=1;" parent="1" vertex="1">
          <mxGeometry y="1140" width="80" height="40" as="geometry" />
        </mxCell>
        <mxCell id="CM2-VIgjt1Z2L4gnI3Ru-78" style="edgeStyle=orthogonalEdgeStyle;rounded=0;orthogonalLoop=1;jettySize=auto;html=1;exitX=0.5;exitY=0;exitDx=0;exitDy=0;entryX=0.25;entryY=1;entryDx=0;entryDy=0;" parent="1" source="CM2-VIgjt1Z2L4gnI3Ru-77" target="CM2-VIgjt1Z2L4gnI3Ru-27" edge="1">
          <mxGeometry relative="1" as="geometry" />
        </mxCell>
        <mxCell id="CM2-VIgjt1Z2L4gnI3Ru-77" value="NazN" style="ellipse;whiteSpace=wrap;html=1;" parent="1" vertex="1">
          <mxGeometry x="70" y="1190" width="80" height="40" as="geometry" />
        </mxCell>
        <mxCell id="CM2-VIgjt1Z2L4gnI3Ru-79" value="TipN" style="ellipse;whiteSpace=wrap;html=1;" parent="1" vertex="1">
          <mxGeometry x="160" y="1200" width="70" height="40" as="geometry" />
        </mxCell>
        <mxCell id="CM2-VIgjt1Z2L4gnI3Ru-80" style="edgeStyle=orthogonalEdgeStyle;rounded=0;orthogonalLoop=1;jettySize=auto;html=1;exitX=0.5;exitY=0;exitDx=0;exitDy=0;entryX=0.673;entryY=1.067;entryDx=0;entryDy=0;entryPerimeter=0;" parent="1" source="CM2-VIgjt1Z2L4gnI3Ru-79" target="CM2-VIgjt1Z2L4gnI3Ru-27" edge="1">
          <mxGeometry relative="1" as="geometry" />
        </mxCell>
        <mxCell id="dCuC0P2UGHGla97l-apu-9" style="edgeStyle=orthogonalEdgeStyle;rounded=0;orthogonalLoop=1;jettySize=auto;html=1;exitX=0.5;exitY=0;exitDx=0;exitDy=0;" parent="1" source="CM2-VIgjt1Z2L4gnI3Ru-81" edge="1">
          <mxGeometry relative="1" as="geometry">
            <mxPoint x="590" y="1150" as="targetPoint" />
          </mxGeometry>
        </mxCell>
        <mxCell id="CM2-VIgjt1Z2L4gnI3Ru-81" value="&lt;u&gt;IdK&lt;/u&gt;" style="ellipse;whiteSpace=wrap;html=1;" parent="1" vertex="1">
          <mxGeometry x="510" y="1200" width="60" height="40" as="geometry" />
        </mxCell>
        <mxCell id="dCuC0P2UGHGla97l-apu-3" style="edgeStyle=orthogonalEdgeStyle;rounded=0;orthogonalLoop=1;jettySize=auto;html=1;exitX=0.5;exitY=0;exitDx=0;exitDy=0;entryX=0.25;entryY=1;entryDx=0;entryDy=0;" parent="1" source="dCuC0P2UGHGla97l-apu-1" target="CM2-VIgjt1Z2L4gnI3Ru-55" edge="1">
          <mxGeometry relative="1" as="geometry">
            <Array as="points">
              <mxPoint x="630" y="1200" />
              <mxPoint x="630" y="1175" />
              <mxPoint x="590" y="1175" />
            </Array>
          </mxGeometry>
        </mxCell>
        <mxCell id="dCuC0P2UGHGla97l-apu-1" value="NazK" style="ellipse;whiteSpace=wrap;html=1;" parent="1" vertex="1">
          <mxGeometry x="585" y="1200" width="65" height="40" as="geometry" />
        </mxCell>
        <mxCell id="dCuC0P2UGHGla97l-apu-10" style="edgeStyle=orthogonalEdgeStyle;rounded=0;orthogonalLoop=1;jettySize=auto;html=1;exitX=0.5;exitY=0;exitDx=0;exitDy=0;entryX=0.25;entryY=1;entryDx=0;entryDy=0;" parent="1" source="dCuC0P2UGHGla97l-apu-4" target="CM2-VIgjt1Z2L4gnI3Ru-55" edge="1">
          <mxGeometry relative="1" as="geometry" />
        </mxCell>
        <mxCell id="dCuC0P2UGHGla97l-apu-4" value="KreK" style="ellipse;whiteSpace=wrap;html=1;" parent="1" vertex="1">
          <mxGeometry x="660" y="1200" width="70" height="40" as="geometry" />
        </mxCell>
        <mxCell id="dCuC0P2UGHGla97l-apu-8" style="edgeStyle=orthogonalEdgeStyle;rounded=0;orthogonalLoop=1;jettySize=auto;html=1;exitX=0.5;exitY=0;exitDx=0;exitDy=0;" parent="1" source="dCuC0P2UGHGla97l-apu-6" edge="1">
          <mxGeometry relative="1" as="geometry">
            <mxPoint x="590" y="1150" as="targetPoint" />
          </mxGeometry>
        </mxCell>
        <mxCell id="dCuC0P2UGHGla97l-apu-6" value="TrK" style="ellipse;whiteSpace=wrap;html=1;" parent="1" vertex="1">
          <mxGeometry x="740" y="1200" width="80" height="40" as="geometry" />
        </mxCell>
        <mxCell id="dCuC0P2UGHGla97l-apu-15" style="edgeStyle=orthogonalEdgeStyle;rounded=0;orthogonalLoop=1;jettySize=auto;html=1;exitX=0.5;exitY=0;exitDx=0;exitDy=0;" parent="1" source="dCuC0P2UGHGla97l-apu-11" edge="1">
          <mxGeometry relative="1" as="geometry">
            <mxPoint x="810" y="870" as="targetPoint" />
          </mxGeometry>
        </mxCell>
        <mxCell id="dCuC0P2UGHGla97l-apu-11" value="&lt;u&gt;IdCl&lt;/u&gt;" style="ellipse;whiteSpace=wrap;html=1;" parent="1" vertex="1">
          <mxGeometry x="710" y="920" width="60" height="30" as="geometry" />
        </mxCell>
        <mxCell id="dCuC0P2UGHGla97l-apu-14" style="edgeStyle=orthogonalEdgeStyle;rounded=0;orthogonalLoop=1;jettySize=auto;html=1;exitX=0.5;exitY=0;exitDx=0;exitDy=0;entryX=0.5;entryY=1;entryDx=0;entryDy=0;" parent="1" source="dCuC0P2UGHGla97l-apu-12" target="hy04I8dhIgJNK-ExyN5S-46" edge="1">
          <mxGeometry relative="1" as="geometry" />
        </mxCell>
        <mxCell id="dCuC0P2UGHGla97l-apu-12" value="IznCl" style="ellipse;whiteSpace=wrap;html=1;" parent="1" vertex="1">
          <mxGeometry x="780" y="920" width="60" height="30" as="geometry" />
        </mxCell>
        <mxCell id="dCuC0P2UGHGla97l-apu-16" style="edgeStyle=orthogonalEdgeStyle;rounded=0;orthogonalLoop=1;jettySize=auto;html=1;exitX=0.5;exitY=0;exitDx=0;exitDy=0;" parent="1" source="dCuC0P2UGHGla97l-apu-13" edge="1">
          <mxGeometry relative="1" as="geometry">
            <mxPoint x="810" y="870" as="targetPoint" />
          </mxGeometry>
        </mxCell>
        <mxCell id="dCuC0P2UGHGla97l-apu-13" value="DatPlCl" style="ellipse;whiteSpace=wrap;html=1;" parent="1" vertex="1">
          <mxGeometry x="850" y="920" width="60" height="30" as="geometry" />
        </mxCell>
        <mxCell id="dCuC0P2UGHGla97l-apu-23" style="edgeStyle=orthogonalEdgeStyle;rounded=0;orthogonalLoop=1;jettySize=auto;html=1;exitX=1;exitY=0.5;exitDx=0;exitDy=0;entryX=0;entryY=0.5;entryDx=0;entryDy=0;" parent="1" source="dCuC0P2UGHGla97l-apu-18" target="CM2-VIgjt1Z2L4gnI3Ru-15" edge="1">
          <mxGeometry relative="1" as="geometry">
            <Array as="points">
              <mxPoint x="-310" y="510" />
              <mxPoint x="-310" y="570" />
            </Array>
          </mxGeometry>
        </mxCell>
        <mxCell id="dCuC0P2UGHGla97l-apu-18" value="&lt;u&gt;IdP&lt;/u&gt;" style="ellipse;whiteSpace=wrap;html=1;" parent="1" vertex="1">
          <mxGeometry x="-415" y="490" width="70" height="40" as="geometry" />
        </mxCell>
        <mxCell id="dCuC0P2UGHGla97l-apu-27" style="edgeStyle=orthogonalEdgeStyle;rounded=0;orthogonalLoop=1;jettySize=auto;html=1;exitX=1;exitY=0.5;exitDx=0;exitDy=0;entryX=0;entryY=0.5;entryDx=0;entryDy=0;" parent="1" source="dCuC0P2UGHGla97l-apu-19" target="hy04I8dhIgJNK-ExyN5S-1" edge="1">
          <mxGeometry relative="1" as="geometry" />
        </mxCell>
        <mxCell id="dCuC0P2UGHGla97l-apu-19" value="&lt;u&gt;IdKud&lt;/u&gt;" style="ellipse;whiteSpace=wrap;html=1;" parent="1" vertex="1">
          <mxGeometry x="-50" y="220" width="70" height="40" as="geometry" />
        </mxCell>
        <mxCell id="dCuC0P2UGHGla97l-apu-22" style="edgeStyle=orthogonalEdgeStyle;rounded=0;orthogonalLoop=1;jettySize=auto;html=1;exitX=1;exitY=0.5;exitDx=0;exitDy=0;entryX=0;entryY=0.5;entryDx=0;entryDy=0;" parent="1" source="dCuC0P2UGHGla97l-apu-20" target="CM2-VIgjt1Z2L4gnI3Ru-15" edge="1">
          <mxGeometry relative="1" as="geometry" />
        </mxCell>
        <mxCell id="dCuC0P2UGHGla97l-apu-20" value="VrPocPr" style="ellipse;whiteSpace=wrap;html=1;" parent="1" vertex="1">
          <mxGeometry x="-415" y="550" width="75" height="40" as="geometry" />
        </mxCell>
        <mxCell id="dCuC0P2UGHGla97l-apu-24" style="edgeStyle=orthogonalEdgeStyle;rounded=0;orthogonalLoop=1;jettySize=auto;html=1;exitX=1;exitY=0.5;exitDx=0;exitDy=0;entryX=0;entryY=0.5;entryDx=0;entryDy=0;" parent="1" source="dCuC0P2UGHGla97l-apu-21" target="CM2-VIgjt1Z2L4gnI3Ru-15" edge="1">
          <mxGeometry relative="1" as="geometry" />
        </mxCell>
        <mxCell id="dCuC0P2UGHGla97l-apu-21" value="TrP" style="ellipse;whiteSpace=wrap;html=1;" parent="1" vertex="1">
          <mxGeometry x="-415" y="620" width="75" height="40" as="geometry" />
        </mxCell>
        <mxCell id="dCuC0P2UGHGla97l-apu-28" style="edgeStyle=orthogonalEdgeStyle;rounded=0;orthogonalLoop=1;jettySize=auto;html=1;exitX=1;exitY=0.5;exitDx=0;exitDy=0;" parent="1" source="dCuC0P2UGHGla97l-apu-25" edge="1">
          <mxGeometry relative="1" as="geometry">
            <mxPoint x="120" y="290" as="targetPoint" />
          </mxGeometry>
        </mxCell>
        <mxCell id="dCuC0P2UGHGla97l-apu-25" value="NazKud" style="ellipse;whiteSpace=wrap;html=1;" parent="1" vertex="1">
          <mxGeometry x="-55" y="270" width="70" height="40" as="geometry" />
        </mxCell>
        <mxCell id="dCuC0P2UGHGla97l-apu-29" style="edgeStyle=orthogonalEdgeStyle;rounded=0;orthogonalLoop=1;jettySize=auto;html=1;exitX=1;exitY=0.5;exitDx=0;exitDy=0;entryX=0;entryY=0.5;entryDx=0;entryDy=0;" parent="1" source="dCuC0P2UGHGla97l-apu-26" target="hy04I8dhIgJNK-ExyN5S-1" edge="1">
          <mxGeometry relative="1" as="geometry" />
        </mxCell>
        <mxCell id="dCuC0P2UGHGla97l-apu-26" value="AdrKud" style="ellipse;whiteSpace=wrap;html=1;" parent="1" vertex="1">
          <mxGeometry x="-50" y="320" width="70" height="40" as="geometry" />
        </mxCell>
        <mxCell id="dCuC0P2UGHGla97l-apu-30" value="&lt;u&gt;IdZ&lt;/u&gt;" style="ellipse;whiteSpace=wrap;html=1;" parent="1" vertex="1">
          <mxGeometry x="560" y="200" width="60" height="30" as="geometry" />
        </mxCell>
        <mxCell id="dCuC0P2UGHGla97l-apu-31" value="ImeZ" style="ellipse;whiteSpace=wrap;html=1;" parent="1" vertex="1">
          <mxGeometry x="630" y="200" width="60" height="30" as="geometry" />
        </mxCell>
        <mxCell id="dCuC0P2UGHGla97l-apu-32" value="PrezZ" style="ellipse;whiteSpace=wrap;html=1;" parent="1" vertex="1">
          <mxGeometry x="700" y="200" width="60" height="30" as="geometry" />
        </mxCell>
        <mxCell id="dCuC0P2UGHGla97l-apu-33" value="JmbgZ" style="ellipse;whiteSpace=wrap;html=1;" parent="1" vertex="1">
          <mxGeometry x="770" y="200" width="65" height="30" as="geometry" />
        </mxCell>
        <mxCell id="dCuC0P2UGHGla97l-apu-44" style="edgeStyle=orthogonalEdgeStyle;rounded=0;orthogonalLoop=1;jettySize=auto;html=1;exitX=0;exitY=0.5;exitDx=0;exitDy=0;" parent="1" source="dCuC0P2UGHGla97l-apu-34" edge="1">
          <mxGeometry relative="1" as="geometry">
            <mxPoint x="710" y="290" as="targetPoint" />
            <Array as="points">
              <mxPoint x="750" y="275" />
              <mxPoint x="750" y="290" />
            </Array>
          </mxGeometry>
        </mxCell>
        <mxCell id="dCuC0P2UGHGla97l-apu-34" value="TipZ" style="ellipse;whiteSpace=wrap;html=1;" parent="1" vertex="1">
          <mxGeometry x="795" y="260" width="65" height="30" as="geometry" />
        </mxCell>
        <mxCell id="dCuC0P2UGHGla97l-apu-43" style="edgeStyle=orthogonalEdgeStyle;rounded=0;orthogonalLoop=1;jettySize=auto;html=1;exitX=0;exitY=0.5;exitDx=0;exitDy=0;entryX=1;entryY=0.5;entryDx=0;entryDy=0;" parent="1" source="dCuC0P2UGHGla97l-apu-35" target="hy04I8dhIgJNK-ExyN5S-2" edge="1">
          <mxGeometry relative="1" as="geometry">
            <Array as="points">
              <mxPoint x="750" y="325" />
              <mxPoint x="750" y="290" />
            </Array>
          </mxGeometry>
        </mxCell>
        <mxCell id="dCuC0P2UGHGla97l-apu-35" value="DatZapZ" style="ellipse;whiteSpace=wrap;html=1;" parent="1" vertex="1">
          <mxGeometry x="790" y="310" width="70" height="30" as="geometry" />
        </mxCell>
        <mxCell id="dCuC0P2UGHGla97l-apu-45" style="edgeStyle=orthogonalEdgeStyle;rounded=0;orthogonalLoop=1;jettySize=auto;html=1;exitX=0;exitY=0.5;exitDx=0;exitDy=0;entryX=1;entryY=0.5;entryDx=0;entryDy=0;" parent="1" source="dCuC0P2UGHGla97l-apu-36" target="hy04I8dhIgJNK-ExyN5S-2" edge="1">
          <mxGeometry relative="1" as="geometry" />
        </mxCell>
        <mxCell id="dCuC0P2UGHGla97l-apu-36" value="BrTelZ" style="ellipse;whiteSpace=wrap;html=1;" parent="1" vertex="1">
          <mxGeometry x="790" y="350" width="70" height="30" as="geometry" />
        </mxCell>
        <mxCell id="dCuC0P2UGHGla97l-apu-38" style="edgeStyle=orthogonalEdgeStyle;rounded=0;orthogonalLoop=1;jettySize=auto;html=1;exitX=0.5;exitY=1;exitDx=0;exitDy=0;entryX=0.547;entryY=0.017;entryDx=0;entryDy=0;entryPerimeter=0;" parent="1" source="dCuC0P2UGHGla97l-apu-31" target="hy04I8dhIgJNK-ExyN5S-2" edge="1">
          <mxGeometry relative="1" as="geometry" />
        </mxCell>
        <mxCell id="dCuC0P2UGHGla97l-apu-39" style="edgeStyle=orthogonalEdgeStyle;rounded=0;orthogonalLoop=1;jettySize=auto;html=1;exitX=0.5;exitY=1;exitDx=0;exitDy=0;entryX=0.141;entryY=0.049;entryDx=0;entryDy=0;entryPerimeter=0;" parent="1" source="dCuC0P2UGHGla97l-apu-30" target="hy04I8dhIgJNK-ExyN5S-2" edge="1">
          <mxGeometry relative="1" as="geometry" />
        </mxCell>
        <mxCell id="dCuC0P2UGHGla97l-apu-40" style="edgeStyle=orthogonalEdgeStyle;rounded=0;orthogonalLoop=1;jettySize=auto;html=1;exitX=0.5;exitY=1;exitDx=0;exitDy=0;entryX=0.557;entryY=0.039;entryDx=0;entryDy=0;entryPerimeter=0;" parent="1" source="dCuC0P2UGHGla97l-apu-32" target="hy04I8dhIgJNK-ExyN5S-2" edge="1">
          <mxGeometry relative="1" as="geometry">
            <Array as="points">
              <mxPoint x="730" y="240" />
              <mxPoint x="657" y="240" />
            </Array>
          </mxGeometry>
        </mxCell>
        <mxCell id="dCuC0P2UGHGla97l-apu-41" style="edgeStyle=orthogonalEdgeStyle;rounded=0;orthogonalLoop=1;jettySize=auto;html=1;exitX=0.5;exitY=1;exitDx=0;exitDy=0;entryX=0.557;entryY=-0.047;entryDx=0;entryDy=0;entryPerimeter=0;" parent="1" source="dCuC0P2UGHGla97l-apu-33" target="hy04I8dhIgJNK-ExyN5S-2" edge="1">
          <mxGeometry relative="1" as="geometry">
            <Array as="points">
              <mxPoint x="802" y="240" />
              <mxPoint x="657" y="240" />
            </Array>
          </mxGeometry>
        </mxCell>
        <mxCell id="dCuC0P2UGHGla97l-apu-50" style="edgeStyle=orthogonalEdgeStyle;rounded=0;orthogonalLoop=1;jettySize=auto;html=1;exitX=0.5;exitY=1;exitDx=0;exitDy=0;" parent="1" source="dCuC0P2UGHGla97l-apu-46" edge="1">
          <mxGeometry relative="1" as="geometry">
            <mxPoint x="240" y="530" as="targetPoint" />
          </mxGeometry>
        </mxCell>
        <mxCell id="dCuC0P2UGHGla97l-apu-46" value="IdS" style="ellipse;whiteSpace=wrap;html=1;" parent="1" vertex="1">
          <mxGeometry x="200" y="470" width="60" height="20" as="geometry" />
        </mxCell>
        <mxCell id="dCuC0P2UGHGla97l-apu-47" value="NazS" style="ellipse;whiteSpace=wrap;html=1;" parent="1" vertex="1">
          <mxGeometry x="270" y="470" width="60" height="20" as="geometry" />
        </mxCell>
        <mxCell id="dCuC0P2UGHGla97l-apu-51" style="edgeStyle=orthogonalEdgeStyle;rounded=0;orthogonalLoop=1;jettySize=auto;html=1;exitX=0.5;exitY=1;exitDx=0;exitDy=0;" parent="1" source="dCuC0P2UGHGla97l-apu-48" edge="1">
          <mxGeometry relative="1" as="geometry">
            <mxPoint x="240" y="530" as="targetPoint" />
          </mxGeometry>
        </mxCell>
        <mxCell id="dCuC0P2UGHGla97l-apu-48" value="TipS" style="ellipse;whiteSpace=wrap;html=1;" parent="1" vertex="1">
          <mxGeometry x="340" y="470" width="60" height="20" as="geometry" />
        </mxCell>
        <mxCell id="dCuC0P2UGHGla97l-apu-49" style="edgeStyle=orthogonalEdgeStyle;rounded=0;orthogonalLoop=1;jettySize=auto;html=1;exitX=0.5;exitY=1;exitDx=0;exitDy=0;entryX=0.867;entryY=-0.019;entryDx=0;entryDy=0;entryPerimeter=0;" parent="1" source="dCuC0P2UGHGla97l-apu-47" target="CM2-VIgjt1Z2L4gnI3Ru-36" edge="1">
          <mxGeometry relative="1" as="geometry" />
        </mxCell>
        <mxCell id="dCuC0P2UGHGla97l-apu-61" style="edgeStyle=orthogonalEdgeStyle;rounded=0;orthogonalLoop=1;jettySize=auto;html=1;exitX=1;exitY=0.5;exitDx=0;exitDy=0;entryX=0;entryY=0.5;entryDx=0;entryDy=0;" parent="1" source="dCuC0P2UGHGla97l-apu-52" target="hy04I8dhIgJNK-ExyN5S-15" edge="1">
          <mxGeometry relative="1" as="geometry" />
        </mxCell>
        <mxCell id="dCuC0P2UGHGla97l-apu-52" value="&lt;u&gt;IdC&lt;/u&gt;" style="ellipse;whiteSpace=wrap;html=1;" parent="1" vertex="1">
          <mxGeometry x="-75" y="760" width="75" height="30" as="geometry" />
        </mxCell>
        <mxCell id="dCuC0P2UGHGla97l-apu-62" style="edgeStyle=orthogonalEdgeStyle;rounded=0;orthogonalLoop=1;jettySize=auto;html=1;exitX=1;exitY=0.5;exitDx=0;exitDy=0;entryX=0;entryY=0.5;entryDx=0;entryDy=0;" parent="1" source="dCuC0P2UGHGla97l-apu-53" target="hy04I8dhIgJNK-ExyN5S-15" edge="1">
          <mxGeometry relative="1" as="geometry" />
        </mxCell>
        <mxCell id="dCuC0P2UGHGla97l-apu-53" value="ImeC" style="ellipse;whiteSpace=wrap;html=1;" parent="1" vertex="1">
          <mxGeometry x="-75.25" y="800" width="75" height="30" as="geometry" />
        </mxCell>
        <mxCell id="dCuC0P2UGHGla97l-apu-59" style="edgeStyle=orthogonalEdgeStyle;rounded=0;orthogonalLoop=1;jettySize=auto;html=1;exitX=1;exitY=0.5;exitDx=0;exitDy=0;entryX=0;entryY=0.5;entryDx=0;entryDy=0;" parent="1" source="dCuC0P2UGHGla97l-apu-54" target="hy04I8dhIgJNK-ExyN5S-15" edge="1">
          <mxGeometry relative="1" as="geometry" />
        </mxCell>
        <mxCell id="dCuC0P2UGHGla97l-apu-54" value="PrezC" style="ellipse;whiteSpace=wrap;html=1;" parent="1" vertex="1">
          <mxGeometry x="-75" y="840" width="75" height="30" as="geometry" />
        </mxCell>
        <mxCell id="dCuC0P2UGHGla97l-apu-63" style="edgeStyle=orthogonalEdgeStyle;rounded=0;orthogonalLoop=1;jettySize=auto;html=1;exitX=1;exitY=0.5;exitDx=0;exitDy=0;entryX=0;entryY=0.5;entryDx=0;entryDy=0;" parent="1" source="dCuC0P2UGHGla97l-apu-55" target="hy04I8dhIgJNK-ExyN5S-15" edge="1">
          <mxGeometry relative="1" as="geometry" />
        </mxCell>
        <mxCell id="dCuC0P2UGHGla97l-apu-55" value="JmbgC" style="ellipse;whiteSpace=wrap;html=1;" parent="1" vertex="1">
          <mxGeometry x="-74" y="880" width="73.75" height="30" as="geometry" />
        </mxCell>
        <mxCell id="dCuC0P2UGHGla97l-apu-64" style="edgeStyle=orthogonalEdgeStyle;rounded=0;orthogonalLoop=1;jettySize=auto;html=1;exitX=1;exitY=0.5;exitDx=0;exitDy=0;entryX=0;entryY=0.5;entryDx=0;entryDy=0;" parent="1" source="dCuC0P2UGHGla97l-apu-56" target="hy04I8dhIgJNK-ExyN5S-15" edge="1">
          <mxGeometry relative="1" as="geometry" />
        </mxCell>
        <mxCell id="dCuC0P2UGHGla97l-apu-56" value="BrTelC" style="ellipse;whiteSpace=wrap;html=1;" parent="1" vertex="1">
          <mxGeometry x="-73.75" y="920" width="74" height="30" as="geometry" />
        </mxCell>
        <mxCell id="dCuC0P2UGHGla97l-apu-65" style="edgeStyle=orthogonalEdgeStyle;rounded=0;orthogonalLoop=1;jettySize=auto;html=1;exitX=1;exitY=0.5;exitDx=0;exitDy=0;entryX=0;entryY=0.5;entryDx=0;entryDy=0;" parent="1" source="dCuC0P2UGHGla97l-apu-57" target="hy04I8dhIgJNK-ExyN5S-15" edge="1">
          <mxGeometry relative="1" as="geometry" />
        </mxCell>
        <mxCell id="dCuC0P2UGHGla97l-apu-57" value="DatRodjC" style="ellipse;whiteSpace=wrap;html=1;" parent="1" vertex="1">
          <mxGeometry x="-74.62" y="960" width="75" height="30" as="geometry" />
        </mxCell>
        <mxCell id="dCuC0P2UGHGla97l-apu-66" style="edgeStyle=orthogonalEdgeStyle;rounded=0;orthogonalLoop=1;jettySize=auto;html=1;exitX=1;exitY=0.5;exitDx=0;exitDy=0;entryX=0;entryY=0.5;entryDx=0;entryDy=0;" parent="1" source="dCuC0P2UGHGla97l-apu-58" target="hy04I8dhIgJNK-ExyN5S-15" edge="1">
          <mxGeometry relative="1" as="geometry" />
        </mxCell>
        <mxCell id="dCuC0P2UGHGla97l-apu-58" value="DatUpC" style="ellipse;whiteSpace=wrap;html=1;" parent="1" vertex="1">
          <mxGeometry x="-75" y="1000" width="75.25" height="30" as="geometry" />
        </mxCell>
        <mxCell id="xCsh317UERCahLKjyAqL-2" value="GRAD" style="rounded=0;whiteSpace=wrap;html=1;" parent="1" vertex="1">
          <mxGeometry x="-80" y="50" width="120" height="60" as="geometry" />
        </mxCell>
        <mxCell id="xCsh317UERCahLKjyAqL-5" style="edgeStyle=orthogonalEdgeStyle;rounded=0;orthogonalLoop=1;jettySize=auto;html=1;exitX=0;exitY=0.5;exitDx=0;exitDy=0;entryX=1;entryY=0.5;entryDx=0;entryDy=0;" parent="1" source="xCsh317UERCahLKjyAqL-3" target="xCsh317UERCahLKjyAqL-2" edge="1">
          <mxGeometry relative="1" as="geometry" />
        </mxCell>
        <mxCell id="xCsh317UERCahLKjyAqL-7" value="0..N" style="edgeLabel;html=1;align=center;verticalAlign=middle;resizable=0;points=[];" parent="xCsh317UERCahLKjyAqL-5" vertex="1" connectable="0">
          <mxGeometry x="-0.1476" relative="1" as="geometry">
            <mxPoint as="offset" />
          </mxGeometry>
        </mxCell>
        <mxCell id="xCsh317UERCahLKjyAqL-3" value="NALAZI SE" style="rhombus;whiteSpace=wrap;html=1;" parent="1" vertex="1">
          <mxGeometry x="80" y="40" width="80" height="80" as="geometry" />
        </mxCell>
        <mxCell id="xCsh317UERCahLKjyAqL-4" style="edgeStyle=orthogonalEdgeStyle;rounded=0;orthogonalLoop=1;jettySize=auto;html=1;exitX=0.5;exitY=1;exitDx=0;exitDy=0;entryX=0.091;entryY=0.056;entryDx=0;entryDy=0;entryPerimeter=0;" parent="1" source="xCsh317UERCahLKjyAqL-3" target="hy04I8dhIgJNK-ExyN5S-1" edge="1">
          <mxGeometry relative="1" as="geometry" />
        </mxCell>
        <mxCell id="xCsh317UERCahLKjyAqL-8" value="1..1" style="edgeLabel;html=1;align=center;verticalAlign=middle;resizable=0;points=[];" parent="xCsh317UERCahLKjyAqL-4" vertex="1" connectable="0">
          <mxGeometry x="-0.7067" relative="1" as="geometry">
            <mxPoint as="offset" />
          </mxGeometry>
        </mxCell>
        <mxCell id="xCsh317UERCahLKjyAqL-12" style="edgeStyle=orthogonalEdgeStyle;rounded=0;orthogonalLoop=1;jettySize=auto;html=1;exitX=1;exitY=0.5;exitDx=0;exitDy=0;entryX=0;entryY=0.25;entryDx=0;entryDy=0;" parent="1" source="xCsh317UERCahLKjyAqL-10" target="xCsh317UERCahLKjyAqL-2" edge="1">
          <mxGeometry relative="1" as="geometry" />
        </mxCell>
        <mxCell id="xCsh317UERCahLKjyAqL-10" value="&lt;u&gt;PostBrG&lt;/u&gt;" style="ellipse;whiteSpace=wrap;html=1;" parent="1" vertex="1">
          <mxGeometry x="-280" y="50" width="75" height="40" as="geometry" />
        </mxCell>
        <mxCell id="xCsh317UERCahLKjyAqL-11" style="edgeStyle=orthogonalEdgeStyle;rounded=0;orthogonalLoop=1;jettySize=auto;html=1;exitX=0.5;exitY=1;exitDx=0;exitDy=0;" parent="1" source="xCsh317UERCahLKjyAqL-10" target="xCsh317UERCahLKjyAqL-10" edge="1">
          <mxGeometry relative="1" as="geometry" />
        </mxCell>
        <mxCell id="xCsh317UERCahLKjyAqL-13" style="edgeStyle=orthogonalEdgeStyle;rounded=0;orthogonalLoop=1;jettySize=auto;html=1;exitX=0.5;exitY=1;exitDx=0;exitDy=0;" parent="1" source="xCsh317UERCahLKjyAqL-10" target="xCsh317UERCahLKjyAqL-10" edge="1">
          <mxGeometry relative="1" as="geometry" />
        </mxCell>
        <mxCell id="xCsh317UERCahLKjyAqL-15" style="edgeStyle=orthogonalEdgeStyle;rounded=0;orthogonalLoop=1;jettySize=auto;html=1;exitX=1;exitY=0.5;exitDx=0;exitDy=0;entryX=0;entryY=0.5;entryDx=0;entryDy=0;" parent="1" source="xCsh317UERCahLKjyAqL-14" target="xCsh317UERCahLKjyAqL-2" edge="1">
          <mxGeometry relative="1" as="geometry" />
        </mxCell>
        <mxCell id="xCsh317UERCahLKjyAqL-14" value="NazG" style="ellipse;whiteSpace=wrap;html=1;" parent="1" vertex="1">
          <mxGeometry x="-279" y="100" width="70" height="40" as="geometry" />
        </mxCell>
        <mxCell id="s2S6JgME6SzRMrmq0q6a-4" value="TipZ" style="text;html=1;align=center;verticalAlign=middle;resizable=0;points=[];autosize=1;strokeColor=none;fillColor=none;" parent="1" vertex="1">
          <mxGeometry x="655" y="328" width="50" height="30" as="geometry" />
        </mxCell>
        <mxCell id="s2S6JgME6SzRMrmq0q6a-5" value="POZAJMICA" style="whiteSpace=wrap;html=1;" parent="1" vertex="1">
          <mxGeometry x="290" y="920" width="120" height="60" as="geometry" />
        </mxCell>
        <mxCell id="s2S6JgME6SzRMrmq0q6a-11" value="" style="rhombus;whiteSpace=wrap;html=1;" parent="1" vertex="1">
          <mxGeometry x="235" y="990" width="95" height="90" as="geometry" />
        </mxCell>
        <mxCell id="s2S6JgME6SzRMrmq0q6a-22" style="edgeStyle=orthogonalEdgeStyle;rounded=0;orthogonalLoop=1;jettySize=auto;html=1;exitX=0;exitY=0.5;exitDx=0;exitDy=0;entryX=0.5;entryY=0;entryDx=0;entryDy=0;" parent="1" source="s2S6JgME6SzRMrmq0q6a-6" target="CM2-VIgjt1Z2L4gnI3Ru-27" edge="1">
          <mxGeometry relative="1" as="geometry" />
        </mxCell>
        <mxCell id="s2S6JgME6SzRMrmq0q6a-23" value="0..N" style="edgeLabel;html=1;align=center;verticalAlign=middle;resizable=0;points=[];" parent="s2S6JgME6SzRMrmq0q6a-22" vertex="1" connectable="0">
          <mxGeometry x="-0.3677" y="-4" relative="1" as="geometry">
            <mxPoint as="offset" />
          </mxGeometry>
        </mxCell>
        <mxCell id="s2S6JgME6SzRMrmq0q6a-6" value="ZA" style="rhombus;whiteSpace=wrap;html=1;" parent="1" vertex="1">
          <mxGeometry x="242.5" y="995" width="80" height="80" as="geometry" />
        </mxCell>
        <mxCell id="s2S6JgME6SzRMrmq0q6a-15" style="edgeStyle=orthogonalEdgeStyle;rounded=0;orthogonalLoop=1;jettySize=auto;html=1;exitX=0;exitY=0.5;exitDx=0;exitDy=0;entryX=1;entryY=0.25;entryDx=0;entryDy=0;" parent="1" source="s2S6JgME6SzRMrmq0q6a-14" target="s2S6JgME6SzRMrmq0q6a-5" edge="1">
          <mxGeometry relative="1" as="geometry" />
        </mxCell>
        <mxCell id="s2S6JgME6SzRMrmq0q6a-14" value="&lt;u&gt;DatP&lt;/u&gt;" style="ellipse;whiteSpace=wrap;html=1;" parent="1" vertex="1">
          <mxGeometry x="470" y="915" width="90" height="45" as="geometry" />
        </mxCell>
        <mxCell id="s2S6JgME6SzRMrmq0q6a-20" value="" style="shape=flexArrow;endArrow=classic;html=1;rounded=0;entryX=0.571;entryY=1.068;entryDx=0;entryDy=0;entryPerimeter=0;exitX=1;exitY=0.5;exitDx=0;exitDy=0;" parent="1" source="s2S6JgME6SzRMrmq0q6a-11" target="s2S6JgME6SzRMrmq0q6a-17" edge="1">
          <mxGeometry width="50" height="50" relative="1" as="geometry">
            <mxPoint x="330" y="1070" as="sourcePoint" />
            <mxPoint x="380" y="1020" as="targetPoint" />
          </mxGeometry>
        </mxCell>
        <mxCell id="s2S6JgME6SzRMrmq0q6a-26" value="ZAPOSLENI" style="rounded=0;whiteSpace=wrap;html=1;" parent="1" vertex="1">
          <mxGeometry x="600" y="265" width="100" height="50" as="geometry" />
        </mxCell>
        <mxCell id="joY-Sn_8TgXlIj9j0hOH-1" value="" style="shape=flexArrow;endArrow=classic;html=1;rounded=0;exitX=1;exitY=0.5;exitDx=0;exitDy=0;entryX=0.029;entryY=0.67;entryDx=0;entryDy=0;entryPerimeter=0;" edge="1" parent="1" source="CM2-VIgjt1Z2L4gnI3Ru-25" target="s2S6JgME6SzRMrmq0q6a-17">
          <mxGeometry width="50" height="50" relative="1" as="geometry">
            <mxPoint x="340" y="990" as="sourcePoint" />
            <mxPoint x="280" y="950" as="targetPoint" />
          </mxGeometry>
        </mxCell>
        <mxCell id="joY-Sn_8TgXlIj9j0hOH-5" value="TrajMan" style="ellipse;whiteSpace=wrap;html=1;" vertex="1" parent="1">
          <mxGeometry x="635" y="640" width="70" height="30" as="geometry" />
        </mxCell>
        <mxCell id="joY-Sn_8TgXlIj9j0hOH-6" style="edgeStyle=orthogonalEdgeStyle;rounded=0;orthogonalLoop=1;jettySize=auto;html=1;exitX=0.5;exitY=0;exitDx=0;exitDy=0;entryX=0.567;entryY=1.007;entryDx=0;entryDy=0;entryPerimeter=0;" edge="1" parent="1" source="joY-Sn_8TgXlIj9j0hOH-5" target="hy04I8dhIgJNK-ExyN5S-6">
          <mxGeometry relative="1" as="geometry" />
        </mxCell>
      </root>
    </mxGraphModel>
  </diagram>
</mxfile>
